<?xml version="1.0" encoding="UTF-8"?>
<svg id="Layer_1" xmlns="http://www.w3.org/2000/svg" version="1.1" xmlns:xlink="http://www.w3.org/1999/xlink" viewBox="0 0 1000 1000">
  <!-- Generator: Adobe Illustrator 30.1.0, SVG Export Plug-In . SVG Version: 2.1.1 Build 136)  -->
  <defs>
    <style>
      .st0 {
        fill: url(#linear-gradient);
      }
    </style>
    <linearGradient id="linear-gradient" x1="497.42" y1="146.73" x2="501.24" y2="1169.02" gradientUnits="userSpaceOnUse">
      <stop offset="0" stop-color="#6bbf5b"/>
      <stop offset=".38" stop-color="#6cc05d"/>
      <stop offset=".57" stop-color="#73c664"/>
      <stop offset=".72" stop-color="#7dd171"/>
      <stop offset=".84" stop-color="#8de084"/>
      <stop offset=".95" stop-color="#a0f39c"/>
      <stop offset="1" stop-color="#adffab"/>
    </linearGradient>
  </defs>
  <path class="st0" d="M967.51,816.35L550.68,174.82c-19.88-34.44-69.58-34.44-89.47,0L32.49,816.35c-19.88,34.44,4.97,43.26,44.73,43.26h156.99c9.16,0,13.76-11.06,7.3-17.55l-43.85-59.17c-4.39-5.12-5.07-12.45-1.7-18.29l280.36-420.25c13.17-22.81,46.09-22.81,59.26,0l233.92,367.52c13.17,22.81-3.29,51.32-29.63,51.32h-28.21c-7.75,0-14.99-3.88-19.28-10.35l-46.04-76.03c-.67-1.07-2.04-1.47-3.18-.92l-64.31,31.01c-1.27.61-1.77,2.16-1.11,3.4l21.36,39.92c2.73,5.1-1.11,11.24-6.89,11.01l-170.53-1.71c-5.82-.23-9.16-6.72-5.97-11.59l97.43-134.93c3.12-4.75,10.18-4.44,12.86.57l31.21,58.34c.63,1.17,2.06,1.64,3.26,1.06l61.73-29.77c1.33-.64,1.81-2.29,1.03-3.54l-93.61-148.35c-4.81-7.07-11.63-9.29-18.19-9.37-10.36-.12-20.02,5.22-25.94,13.72l-176.89,253.75c-3.25,5.83-2.51,13.08,1.85,18.13l54.88,83.65c5.29,5.38,12.51,8.41,20.05,8.41h537.38c39.76,0,64.61-8.83,44.73-43.26Z"/>
</svg>